<mxfile host="app.diagrams.net" modified="2024-07-02T08:27:09.766Z" agent="Mozilla/5.0 (X11; Linux x86_64) AppleWebKit/537.36 (KHTML, like Gecko) Chrome/122.0.0.0 Safari/537.36" etag="JWWo-Um5Oe3294baTQuY" version="24.6.4" type="github">
  <diagram name="Page-1" id="WAT1hUc1pY_A0BZx4c1l">
    <mxGraphModel dx="1520" dy="777" grid="0" gridSize="10" guides="1" tooltips="1" connect="1" arrows="1" fold="1" page="0" pageScale="1" pageWidth="827" pageHeight="1169" math="0" shadow="0">
      <root>
        <mxCell id="0" />
        <mxCell id="1" parent="0" />
        <mxCell id="F9KlmD1yrot9cbZdfzUd-1" value="Apprenant" style="swimlane;fontStyle=0;childLayout=stackLayout;horizontal=1;startSize=30;horizontalStack=0;resizeParent=1;resizeParentMax=0;resizeLast=0;collapsible=1;marginBottom=0;whiteSpace=wrap;html=1;" parent="1" vertex="1">
          <mxGeometry x="134" y="-228" width="140" height="120" as="geometry" />
        </mxCell>
        <mxCell id="F9KlmD1yrot9cbZdfzUd-2" value="Matricule" style="text;strokeColor=none;fillColor=none;align=left;verticalAlign=middle;spacingLeft=4;spacingRight=4;overflow=hidden;points=[[0,0.5],[1,0.5]];portConstraint=eastwest;rotatable=0;whiteSpace=wrap;html=1;" parent="F9KlmD1yrot9cbZdfzUd-1" vertex="1">
          <mxGeometry y="30" width="140" height="30" as="geometry" />
        </mxCell>
        <mxCell id="F9KlmD1yrot9cbZdfzUd-3" value="Prenom" style="text;strokeColor=none;fillColor=none;align=left;verticalAlign=middle;spacingLeft=4;spacingRight=4;overflow=hidden;points=[[0,0.5],[1,0.5]];portConstraint=eastwest;rotatable=0;whiteSpace=wrap;html=1;" parent="F9KlmD1yrot9cbZdfzUd-1" vertex="1">
          <mxGeometry y="60" width="140" height="30" as="geometry" />
        </mxCell>
        <mxCell id="F9KlmD1yrot9cbZdfzUd-4" value="Nom" style="text;strokeColor=none;fillColor=none;align=left;verticalAlign=middle;spacingLeft=4;spacingRight=4;overflow=hidden;points=[[0,0.5],[1,0.5]];portConstraint=eastwest;rotatable=0;whiteSpace=wrap;html=1;" parent="F9KlmD1yrot9cbZdfzUd-1" vertex="1">
          <mxGeometry y="90" width="140" height="30" as="geometry" />
        </mxCell>
        <mxCell id="F9KlmD1yrot9cbZdfzUd-13" value="Session" style="swimlane;fontStyle=0;childLayout=stackLayout;horizontal=1;startSize=30;horizontalStack=0;resizeParent=1;resizeParentMax=0;resizeLast=0;collapsible=1;marginBottom=0;whiteSpace=wrap;html=1;" parent="1" vertex="1">
          <mxGeometry x="489" y="-203" width="140" height="150" as="geometry" />
        </mxCell>
        <mxCell id="F9KlmD1yrot9cbZdfzUd-14" value="id" style="text;strokeColor=none;fillColor=none;align=left;verticalAlign=middle;spacingLeft=4;spacingRight=4;overflow=hidden;points=[[0,0.5],[1,0.5]];portConstraint=eastwest;rotatable=0;whiteSpace=wrap;html=1;" parent="F9KlmD1yrot9cbZdfzUd-13" vertex="1">
          <mxGeometry y="30" width="140" height="30" as="geometry" />
        </mxCell>
        <mxCell id="F9KlmD1yrot9cbZdfzUd-15" value="annee" style="text;strokeColor=none;fillColor=none;align=left;verticalAlign=middle;spacingLeft=4;spacingRight=4;overflow=hidden;points=[[0,0.5],[1,0.5]];portConstraint=eastwest;rotatable=0;whiteSpace=wrap;html=1;" parent="F9KlmD1yrot9cbZdfzUd-13" vertex="1">
          <mxGeometry y="60" width="140" height="30" as="geometry" />
        </mxCell>
        <mxCell id="F9KlmD1yrot9cbZdfzUd-16" value="type" style="text;strokeColor=none;fillColor=none;align=left;verticalAlign=middle;spacingLeft=4;spacingRight=4;overflow=hidden;points=[[0,0.5],[1,0.5]];portConstraint=eastwest;rotatable=0;whiteSpace=wrap;html=1;" parent="F9KlmD1yrot9cbZdfzUd-13" vertex="1">
          <mxGeometry y="90" width="140" height="30" as="geometry" />
        </mxCell>
        <mxCell id="F9KlmD1yrot9cbZdfzUd-25" value="Ville" style="text;strokeColor=none;fillColor=none;align=left;verticalAlign=middle;spacingLeft=4;spacingRight=4;overflow=hidden;points=[[0,0.5],[1,0.5]];portConstraint=eastwest;rotatable=0;whiteSpace=wrap;html=1;" parent="F9KlmD1yrot9cbZdfzUd-13" vertex="1">
          <mxGeometry y="120" width="140" height="30" as="geometry" />
        </mxCell>
        <mxCell id="F9KlmD1yrot9cbZdfzUd-17" value="Ordinateur" style="swimlane;fontStyle=0;childLayout=stackLayout;horizontal=1;startSize=30;horizontalStack=0;resizeParent=1;resizeParentMax=0;resizeLast=0;collapsible=1;marginBottom=0;whiteSpace=wrap;html=1;" parent="1" vertex="1">
          <mxGeometry x="-270" y="-233" width="140" height="120" as="geometry" />
        </mxCell>
        <mxCell id="F9KlmD1yrot9cbZdfzUd-18" value="tag" style="text;strokeColor=none;fillColor=none;align=left;verticalAlign=middle;spacingLeft=4;spacingRight=4;overflow=hidden;points=[[0,0.5],[1,0.5]];portConstraint=eastwest;rotatable=0;whiteSpace=wrap;html=1;" parent="F9KlmD1yrot9cbZdfzUd-17" vertex="1">
          <mxGeometry y="30" width="140" height="30" as="geometry" />
        </mxCell>
        <mxCell id="F9KlmD1yrot9cbZdfzUd-19" value="modele" style="text;strokeColor=none;fillColor=none;align=left;verticalAlign=middle;spacingLeft=4;spacingRight=4;overflow=hidden;points=[[0,0.5],[1,0.5]];portConstraint=eastwest;rotatable=0;whiteSpace=wrap;html=1;" parent="F9KlmD1yrot9cbZdfzUd-17" vertex="1">
          <mxGeometry y="60" width="140" height="30" as="geometry" />
        </mxCell>
        <mxCell id="F9KlmD1yrot9cbZdfzUd-20" value="fabriquant" style="text;strokeColor=none;fillColor=none;align=left;verticalAlign=middle;spacingLeft=4;spacingRight=4;overflow=hidden;points=[[0,0.5],[1,0.5]];portConstraint=eastwest;rotatable=0;whiteSpace=wrap;html=1;" parent="F9KlmD1yrot9cbZdfzUd-17" vertex="1">
          <mxGeometry y="90" width="140" height="30" as="geometry" />
        </mxCell>
        <mxCell id="F9KlmD1yrot9cbZdfzUd-21" value="Cohorte" style="swimlane;fontStyle=0;childLayout=stackLayout;horizontal=1;startSize=30;horizontalStack=0;resizeParent=1;resizeParentMax=0;resizeLast=0;collapsible=1;marginBottom=0;whiteSpace=wrap;html=1;" parent="1" vertex="1">
          <mxGeometry x="134" y="24" width="140" height="120" as="geometry" />
        </mxCell>
        <mxCell id="F9KlmD1yrot9cbZdfzUd-22" value="code" style="text;strokeColor=none;fillColor=none;align=left;verticalAlign=middle;spacingLeft=4;spacingRight=4;overflow=hidden;points=[[0,0.5],[1,0.5]];portConstraint=eastwest;rotatable=0;whiteSpace=wrap;html=1;" parent="F9KlmD1yrot9cbZdfzUd-21" vertex="1">
          <mxGeometry y="30" width="140" height="30" as="geometry" />
        </mxCell>
        <mxCell id="F9KlmD1yrot9cbZdfzUd-23" value="description" style="text;strokeColor=none;fillColor=none;align=left;verticalAlign=middle;spacingLeft=4;spacingRight=4;overflow=hidden;points=[[0,0.5],[1,0.5]];portConstraint=eastwest;rotatable=0;whiteSpace=wrap;html=1;" parent="F9KlmD1yrot9cbZdfzUd-21" vertex="1">
          <mxGeometry y="60" width="140" height="30" as="geometry" />
        </mxCell>
        <mxCell id="F9KlmD1yrot9cbZdfzUd-24" value="Item 3" style="text;strokeColor=none;fillColor=none;align=left;verticalAlign=middle;spacingLeft=4;spacingRight=4;overflow=hidden;points=[[0,0.5],[1,0.5]];portConstraint=eastwest;rotatable=0;whiteSpace=wrap;html=1;" parent="F9KlmD1yrot9cbZdfzUd-21" vertex="1">
          <mxGeometry y="90" width="140" height="30" as="geometry" />
        </mxCell>
        <mxCell id="F9KlmD1yrot9cbZdfzUd-26" value="Est assigne" style="ellipse;whiteSpace=wrap;html=1;align=center;" parent="1" vertex="1">
          <mxGeometry x="-60" y="-184" width="100" height="40" as="geometry" />
        </mxCell>
        <mxCell id="F9KlmD1yrot9cbZdfzUd-27" value="Est rattache" style="ellipse;whiteSpace=wrap;html=1;align=center;" parent="1" vertex="1">
          <mxGeometry x="506" y="84" width="100" height="40" as="geometry" />
        </mxCell>
        <mxCell id="F9KlmD1yrot9cbZdfzUd-28" value="Appartient" style="ellipse;whiteSpace=wrap;html=1;align=center;" parent="1" vertex="1">
          <mxGeometry x="143" y="-62" width="100" height="40" as="geometry" />
        </mxCell>
        <mxCell id="F9KlmD1yrot9cbZdfzUd-29" value="Coach" style="swimlane;childLayout=stackLayout;horizontal=1;startSize=50;horizontalStack=0;rounded=1;fontSize=14;fontStyle=0;strokeWidth=2;resizeParent=0;resizeLast=1;shadow=0;dashed=0;align=center;arcSize=4;whiteSpace=wrap;html=1;" parent="1" vertex="1">
          <mxGeometry x="-280" y="24" width="160" height="120" as="geometry" />
        </mxCell>
        <mxCell id="F9KlmD1yrot9cbZdfzUd-30" value="matricule&lt;div&gt;prenom&lt;/div&gt;&lt;div&gt;nom&lt;/div&gt;&lt;div&gt;adresse&lt;/div&gt;" style="align=left;strokeColor=none;fillColor=none;spacingLeft=4;fontSize=12;verticalAlign=top;resizable=0;rotatable=0;part=1;html=1;" parent="F9KlmD1yrot9cbZdfzUd-29" vertex="1">
          <mxGeometry y="50" width="160" height="70" as="geometry" />
        </mxCell>
        <mxCell id="F9KlmD1yrot9cbZdfzUd-31" value="" style="endArrow=none;html=1;rounded=0;entryX=0;entryY=0.5;entryDx=0;entryDy=0;" parent="1" target="F9KlmD1yrot9cbZdfzUd-26" edge="1">
          <mxGeometry relative="1" as="geometry">
            <mxPoint x="-129" y="-164" as="sourcePoint" />
            <mxPoint x="-30" y="-160" as="targetPoint" />
          </mxGeometry>
        </mxCell>
        <mxCell id="F9KlmD1yrot9cbZdfzUd-32" value="0,*" style="resizable=0;html=1;whiteSpace=wrap;align=right;verticalAlign=bottom;" parent="F9KlmD1yrot9cbZdfzUd-31" connectable="0" vertex="1">
          <mxGeometry x="1" relative="1" as="geometry">
            <mxPoint x="-50" as="offset" />
          </mxGeometry>
        </mxCell>
        <mxCell id="F9KlmD1yrot9cbZdfzUd-34" value="" style="endArrow=none;html=1;rounded=0;" parent="1" edge="1">
          <mxGeometry relative="1" as="geometry">
            <mxPoint x="38" y="-162" as="sourcePoint" />
            <mxPoint x="136" y="-162" as="targetPoint" />
          </mxGeometry>
        </mxCell>
        <mxCell id="F9KlmD1yrot9cbZdfzUd-35" value="1.1" style="resizable=0;html=1;whiteSpace=wrap;align=right;verticalAlign=bottom;" parent="F9KlmD1yrot9cbZdfzUd-34" connectable="0" vertex="1">
          <mxGeometry x="1" relative="1" as="geometry">
            <mxPoint x="-9" as="offset" />
          </mxGeometry>
        </mxCell>
        <mxCell id="F9KlmD1yrot9cbZdfzUd-52" value="accompagne" style="ellipse;whiteSpace=wrap;html=1;align=center;" parent="1" vertex="1">
          <mxGeometry x="-56" y="79" width="100" height="40" as="geometry" />
        </mxCell>
        <mxCell id="F9KlmD1yrot9cbZdfzUd-57" value="" style="endArrow=none;html=1;rounded=0;entryX=0;entryY=0.5;entryDx=0;entryDy=0;exitX=1;exitY=0.5;exitDx=0;exitDy=0;" parent="1" source="F9KlmD1yrot9cbZdfzUd-30" target="F9KlmD1yrot9cbZdfzUd-52" edge="1">
          <mxGeometry relative="1" as="geometry">
            <mxPoint x="142" y="-38" as="sourcePoint" />
            <mxPoint x="302" y="-38" as="targetPoint" />
          </mxGeometry>
        </mxCell>
        <mxCell id="F9KlmD1yrot9cbZdfzUd-58" value="1,1" style="resizable=0;html=1;whiteSpace=wrap;align=right;verticalAlign=bottom;" parent="F9KlmD1yrot9cbZdfzUd-57" connectable="0" vertex="1">
          <mxGeometry x="1" relative="1" as="geometry">
            <mxPoint x="-39" y="3" as="offset" />
          </mxGeometry>
        </mxCell>
        <mxCell id="F9KlmD1yrot9cbZdfzUd-59" value="" style="endArrow=none;html=1;rounded=0;exitX=1;exitY=0.5;exitDx=0;exitDy=0;" parent="1" source="F9KlmD1yrot9cbZdfzUd-52" edge="1">
          <mxGeometry relative="1" as="geometry">
            <mxPoint x="-110" y="119" as="sourcePoint" />
            <mxPoint x="133" y="106" as="targetPoint" />
          </mxGeometry>
        </mxCell>
        <mxCell id="F9KlmD1yrot9cbZdfzUd-60" value="1,1" style="resizable=0;html=1;whiteSpace=wrap;align=right;verticalAlign=bottom;" parent="F9KlmD1yrot9cbZdfzUd-59" connectable="0" vertex="1">
          <mxGeometry x="1" relative="1" as="geometry">
            <mxPoint x="-15" y="-3" as="offset" />
          </mxGeometry>
        </mxCell>
        <mxCell id="F9KlmD1yrot9cbZdfzUd-61" value="" style="endArrow=none;html=1;rounded=0;exitX=0.479;exitY=1.033;exitDx=0;exitDy=0;exitPerimeter=0;" parent="1" source="F9KlmD1yrot9cbZdfzUd-4" edge="1">
          <mxGeometry relative="1" as="geometry">
            <mxPoint x="48" y="-152" as="sourcePoint" />
            <mxPoint x="201" y="-64" as="targetPoint" />
          </mxGeometry>
        </mxCell>
        <mxCell id="F9KlmD1yrot9cbZdfzUd-62" value="1.1" style="resizable=0;html=1;whiteSpace=wrap;align=right;verticalAlign=bottom;" parent="F9KlmD1yrot9cbZdfzUd-61" connectable="0" vertex="1">
          <mxGeometry x="1" relative="1" as="geometry">
            <mxPoint x="-1" y="-21" as="offset" />
          </mxGeometry>
        </mxCell>
        <mxCell id="F9KlmD1yrot9cbZdfzUd-64" value="" style="endArrow=none;html=1;rounded=0;" parent="1" target="F9KlmD1yrot9cbZdfzUd-21" edge="1">
          <mxGeometry relative="1" as="geometry">
            <mxPoint x="206" y="-26" as="sourcePoint" />
            <mxPoint x="211" y="-54" as="targetPoint" />
          </mxGeometry>
        </mxCell>
        <mxCell id="F9KlmD1yrot9cbZdfzUd-65" value="1,*" style="resizable=0;html=1;whiteSpace=wrap;align=right;verticalAlign=bottom;" parent="F9KlmD1yrot9cbZdfzUd-64" connectable="0" vertex="1">
          <mxGeometry x="1" relative="1" as="geometry">
            <mxPoint x="-9" as="offset" />
          </mxGeometry>
        </mxCell>
        <mxCell id="F9KlmD1yrot9cbZdfzUd-66" value="" style="endArrow=none;html=1;rounded=0;entryX=0;entryY=0.5;entryDx=0;entryDy=0;" parent="1" target="F9KlmD1yrot9cbZdfzUd-27" edge="1">
          <mxGeometry relative="1" as="geometry">
            <mxPoint x="277" y="102" as="sourcePoint" />
            <mxPoint x="143" y="116" as="targetPoint" />
          </mxGeometry>
        </mxCell>
        <mxCell id="F9KlmD1yrot9cbZdfzUd-67" value="1,1" style="resizable=0;html=1;whiteSpace=wrap;align=right;verticalAlign=bottom;" parent="F9KlmD1yrot9cbZdfzUd-66" connectable="0" vertex="1">
          <mxGeometry x="1" relative="1" as="geometry">
            <mxPoint x="-206" y="-8" as="offset" />
          </mxGeometry>
        </mxCell>
        <mxCell id="F9KlmD1yrot9cbZdfzUd-68" value="" style="endArrow=none;html=1;rounded=0;exitX=0.593;exitY=1.167;exitDx=0;exitDy=0;exitPerimeter=0;entryX=0.65;entryY=-0.025;entryDx=0;entryDy=0;entryPerimeter=0;" parent="1" source="F9KlmD1yrot9cbZdfzUd-25" target="F9KlmD1yrot9cbZdfzUd-27" edge="1">
          <mxGeometry relative="1" as="geometry">
            <mxPoint x="507" y="12" as="sourcePoint" />
            <mxPoint x="215" y="34" as="targetPoint" />
          </mxGeometry>
        </mxCell>
        <mxCell id="F9KlmD1yrot9cbZdfzUd-69" value="1,*" style="resizable=0;html=1;whiteSpace=wrap;align=right;verticalAlign=bottom;" parent="F9KlmD1yrot9cbZdfzUd-68" connectable="0" vertex="1">
          <mxGeometry x="1" relative="1" as="geometry">
            <mxPoint x="1" y="-112" as="offset" />
          </mxGeometry>
        </mxCell>
      </root>
    </mxGraphModel>
  </diagram>
</mxfile>
